<svg preserveAspectRatio="none" overflow="visible" style="display: block;" width="24" height="24" viewBox="0 0 24 24" fill="none" xmlns="http://www.w3.org/2000/svg">
<g id="play-circle">
<path id="Vector" d="M11.97 22C17.4928 22 21.97 17.5228 21.97 12C21.97 6.47715 17.4928 2 11.97 2C6.44715 2 1.97 6.47715 1.97 12C1.97 17.5228 6.44715 22 11.97 22Z" stroke="white" stroke-width="1.5" stroke-linecap="round" stroke-linejoin="round"/>
<path id="Vector_2" d="M8.74 12.23V10.56C8.74 8.48 10.21 7.63 12.01 8.67L13.46 9.51L14.91 10.35C16.71 11.39 16.71 13.09 14.91 14.13L13.46 14.97L12.01 15.81C10.21 16.85 8.74 16 8.74 13.92V12.23Z" stroke="white" stroke-width="1.5" stroke-miterlimit="10" stroke-linecap="round" stroke-linejoin="round"/>
<path id="Vector_3" opacity="0" d="M23.5 0.5V23.5H0.5V0.5H23.5Z" stroke="white"/>
</g>
</svg>
