<svg width="721" height="460" viewBox="0 0 721 460" fill="none" xmlns="http://www.w3.org/2000/svg">
<path d="M419.156 350.906H94.0938V25.8438H186.969V-20.5938H94.0938C68.5531 -20.5938 47.6562 0.303125 47.6562 25.8438V165.156H-22V211.594H47.6562V350.906C47.6562 376.447 68.5531 397.344 94.0938 397.344H419.156C444.697 397.344 465.594 376.447 465.594 350.906V258.031H419.156V350.906Z" fill="black" fill-opacity="0.1"/>
<path d="M233.406 165.156H465.594V211.594H233.406V165.156ZM233.406 72.2812H465.594V118.719H233.406V72.2812ZM233.406 -20.5938H465.594V25.8438H233.406V-20.5938Z" fill="black" fill-opacity="0.1"/>
<path d="M651.344 -20.5938V-159.906C651.344 -185.447 630.447 -206.344 604.906 -206.344H279.844C254.303 -206.344 233.406 -185.447 233.406 -159.906V-67.0312H279.844V-159.906H604.906V165.156H512.031V211.594H604.906C630.447 211.594 651.344 190.697 651.344 165.156V25.8438H721V-20.5938H651.344Z" fill="black" fill-opacity="0.1"/>
</svg>
