<svg width="1001" height="1001" viewBox="0 0 1001 1001" fill="none" xmlns="http://www.w3.org/2000/svg">
<g clip-path="url(#clip0_170_16024)">
<mask id="mask0_170_16024" style="mask-type:luminance" maskUnits="userSpaceOnUse" x="35" y="41" width="931" height="919">
<path d="M575.919 41.9835L35.8242 501.307L425.082 959.015L965.177 499.691L575.919 41.9835Z" fill="white"/>
</mask>
<g mask="url(#mask0_170_16024)">
<path d="M404.678 769.334C553.151 822.256 716.415 744.796 769.337 596.322C822.259 447.849 744.799 284.585 596.325 231.664C447.852 178.742 284.588 256.202 231.667 404.675C178.745 553.148 256.205 716.412 404.678 769.334Z" stroke="#A4A189" stroke-opacity="0.3" stroke-width="0.805085" stroke-miterlimit="10" stroke-dasharray="0.81 0.81"/>
<path d="M758.401 378.137C720.552 298.368 574.662 288.227 431.919 355.951C289.172 423.677 204.749 543.087 242.598 622.856" stroke="#A4A189" stroke-opacity="0.3" stroke-width="0.805085" stroke-miterlimit="10"/>
<path d="M758.406 378.142C709.62 274.541 554.027 245.492 411.881 312.931C269.736 380.371 193.819 519.261 242.606 622.862" stroke="#A4A189" stroke-opacity="0.3" stroke-width="0.805085" stroke-miterlimit="10" stroke-dasharray="0.81 0.81"/>
<path d="M758.401 378.137C698.803 251.743 534.385 204.103 392.084 271.984C249.779 339.867 183 496.462 242.598 622.856" stroke="#A4A189" stroke-opacity="0.3" stroke-width="0.805085" stroke-miterlimit="10"/>
<path d="M758.4 378.137C746.608 352.504 621.174 387.031 478.588 454.314C336 521.595 230.805 597.223 242.597 622.856" stroke="#A4A189" stroke-opacity="0.3" stroke-width="0.805085" stroke-miterlimit="10"/>
<path d="M238.616 614.462C276.903 694.387 422.794 704.528 565.096 636.644C707.398 568.763 792.263 449.507 754.418 369.736" stroke="#A4A189" stroke-opacity="0.3" stroke-width="0.805085" stroke-miterlimit="10"/>
<path d="M238.616 614.458C288.002 717.775 443.44 747.266 585.584 679.826C727.728 612.386 803.643 473.502 754.415 369.743" stroke="#A4A189" stroke-opacity="0.3" stroke-width="0.805085" stroke-miterlimit="10" stroke-dasharray="0.81 0.81"/>
<path d="M238.615 614.461C298.816 740.569 462.631 788.495 605.375 720.768C748.121 653.045 814.616 495.848 754.417 369.738" stroke="#A4A189" stroke-opacity="0.3" stroke-width="0.805085" stroke-miterlimit="10"/>
<path d="M238.611 614.458C264.094 667.395 399.74 655.944 542.487 588.219C685.231 520.492 779.898 422.673 754.415 369.736" stroke="#A4A189" stroke-opacity="0.3" stroke-width="0.805085" stroke-miterlimit="10" stroke-dasharray="0.68 0.68"/>
<path d="M238.611 614.458C252.27 643.247 379.126 611.718 521.27 544.278C663.418 476.837 768.074 398.525 754.415 369.736" stroke="#A4A189" stroke-opacity="0.3" stroke-width="0.805085" stroke-miterlimit="10"/>
<path d="M243.108 620.046L754.87 376.875" stroke="#A4A189" stroke-opacity="0.3" stroke-width="0.805085" stroke-miterlimit="10" stroke-dasharray="0.81 0.81"/>
<path d="M758.397 378.135C733.513 324.914 597.712 336.808 454.965 404.534C312.222 472.26 217.716 569.636 242.598 622.859" stroke="#A4A189" stroke-opacity="0.3" stroke-width="0.805085" stroke-miterlimit="10" stroke-dasharray="0.81 0.81"/>
<path d="M753.302 380.557C756.944 381.855 760.951 379.956 762.249 376.314C763.548 372.669 761.647 368.662 758.005 367.364C754.36 366.065 750.355 367.967 749.056 371.612C747.758 375.254 749.657 379.257 753.302 380.557Z" fill="#A4A189" fill-opacity="0.3"/>
<path d="M238.753 624.685C242.398 625.984 246.403 624.081 247.701 620.439C249 616.795 247.101 612.791 243.456 611.492C239.814 610.194 235.807 612.092 234.508 615.737C233.21 619.379 235.111 623.386 238.753 624.685Z" fill="#A4A189" fill-opacity="0.3"/>
<path d="M315.604 283.089C395.598 215.058 543.4 257.244 645.445 377.233C747.49 497.223 765.393 649.881 685.398 717.912C605.404 785.943 457.602 743.757 355.557 623.768C253.513 503.779 235.609 351.121 315.604 283.089Z" stroke="#A4A189" stroke-opacity="0.3" stroke-width="0.805085" stroke-dasharray="0.81 0.81"/>
<path d="M314.631 281.946C359.658 243.652 479.377 310.46 582.03 431.165C684.683 551.869 731.398 680.763 686.371 719.056C641.344 757.35 521.625 690.542 418.972 569.837C316.319 449.133 269.604 320.239 314.631 281.946Z" stroke="#A4A189" stroke-opacity="0.3" stroke-width="0.805085" stroke-dasharray="0.81 0.81"/>
<path d="M503.46 350.555C506.617 347.87 511.361 348.253 514.047 351.411C516.732 354.569 516.349 359.313 513.191 361.998C510.033 364.684 505.289 364.3 502.604 361.142C499.919 357.985 500.302 353.241 503.46 350.555Z" fill="#A4A189" fill-opacity="0.3"/>
<path d="M489.436 641.116C492.594 638.431 497.338 638.814 500.023 641.972C502.709 645.129 502.325 649.874 499.168 652.559C496.01 655.244 491.266 654.861 488.581 651.703C485.895 648.546 486.279 643.802 489.436 641.116Z" fill="#A4A189" fill-opacity="0.3"/>
</g>
</g>
<defs>
<clipPath id="clip0_170_16024">
<rect width="709" height="709" fill="white" transform="translate(0.791016 460.114) rotate(-40.3795)"/>
</clipPath>
</defs>
</svg>
