<svg width="164" height="35" viewBox="0 0 164 35" fill="none" xmlns="http://www.w3.org/2000/svg">
<path d="M42.3976 30.2619V6.24683H45.3128V16.9356H58.1532V6.24683H61.0684V30.2619H58.1532V19.5037H45.3128V30.2619H42.3976Z" fill="#FFF4E1"/>
<path d="M73.8394 30.6782C72.243 30.6782 70.7855 30.2618 69.5361 29.4983C68.2868 28.7348 67.3845 27.6243 66.6904 26.2362C65.9963 24.848 65.6493 23.2516 65.6493 21.3776C65.6493 19.5036 65.9963 17.8378 66.6904 16.4496C67.3845 15.0615 68.3562 13.951 69.5361 13.1875C70.7161 12.424 72.1736 12.0076 73.8394 12.0076C75.5052 12.0076 76.8934 12.424 78.1427 13.1875C79.392 13.951 80.2943 15.0615 80.9884 16.4496C81.6825 17.8378 82.0295 19.5036 82.0295 21.3776C82.0295 23.2516 81.6825 24.848 80.9884 26.2362C80.2943 27.6243 79.3226 28.7348 78.1427 29.4983C76.8934 30.2618 75.5052 30.6782 73.8394 30.6782ZM73.8394 28.1796C75.0888 28.1796 76.0605 27.8325 76.8934 27.2078C77.6568 26.5832 78.2815 25.7503 78.698 24.7092C79.1144 23.6681 79.2532 22.5575 79.2532 21.3776C79.2532 20.1977 79.045 19.0177 78.698 17.9766C78.2815 16.9355 77.7263 16.1026 76.8934 15.478C76.1299 14.8533 75.0888 14.5062 73.8394 14.5062C72.5901 14.5062 71.6184 14.8533 70.7855 15.478C70.022 16.1026 69.3973 16.9355 68.9809 17.9766C68.5644 19.0177 68.4256 20.1283 68.4256 21.3776C68.4256 22.627 68.6338 23.6681 68.9809 24.7092C69.3973 25.7503 69.9526 26.5832 70.7855 27.2078C71.549 27.8325 72.5901 28.1796 73.8394 28.1796Z" fill="#FFF4E1"/>
<path d="M98.9649 16.3107L96.4662 17.0048C96.3274 16.5883 96.0498 16.1719 95.7721 15.8248C95.4945 15.4084 95.0781 15.1308 94.5228 14.8531C94.0369 14.5755 93.3429 14.4367 92.51 14.4367C91.6771 14.4367 90.4971 14.7143 89.7337 15.2002C88.9702 15.686 88.6231 16.3107 88.6231 17.1436C88.6231 17.9765 88.9008 18.3929 89.3866 18.74C89.8725 19.087 90.636 19.5034 91.7465 19.7117L94.4534 20.3364C96.0498 20.7528 97.2991 21.308 98.0626 22.1409C98.8261 22.9738 99.2425 23.9455 99.2425 25.2643C99.2425 26.583 98.9649 27.2077 98.3402 28.0406C97.7156 28.8735 96.9521 29.4982 95.8416 29.984C94.8004 30.4699 93.5511 30.6781 92.1629 30.6781C90.7748 30.6781 88.8314 30.2617 87.582 29.4982C86.3327 28.7347 85.6386 27.5548 85.2916 26.0278L87.9291 25.4031C88.2067 26.3748 88.6231 27.0689 89.3866 27.5547C90.0807 28.0406 90.983 28.2488 92.1629 28.2488C93.3429 28.2488 94.4534 27.9712 95.2169 27.416C95.9804 26.8607 96.3274 26.236 96.3274 25.4031C96.3274 24.5702 96.1192 24.2232 95.7027 23.8067C95.2863 23.3903 94.5922 23.0432 93.6899 22.835L90.7054 22.1409C89.0396 21.7245 87.8596 21.1692 87.0962 20.3364C86.3327 19.5035 85.9162 18.4623 85.9162 17.213C85.9162 15.9637 86.1939 15.2696 86.7491 14.5061C87.3044 13.7426 88.1373 13.1179 89.109 12.6321C90.0807 12.2156 91.2606 11.938 92.51 11.938C93.7593 11.938 95.7027 12.3544 96.7439 13.1179C97.785 13.8814 98.4791 14.9225 98.8955 16.2413L98.9649 16.3107Z" fill="#FFF4E1"/>
<path d="M111.32 12.2853V14.6452H101.949V12.2853H111.32ZM104.656 7.9126H107.433V25.0563C107.433 25.8198 107.571 26.4445 107.78 26.7915C107.988 27.208 108.335 27.4162 108.682 27.555C109.029 27.6938 109.446 27.7632 109.862 27.7632C110.278 27.7632 110.417 27.7632 110.625 27.7632C110.834 27.7632 110.972 27.7632 111.111 27.6938L111.667 30.1925C111.458 30.2619 111.25 30.3313 110.903 30.4007C110.556 30.4701 110.14 30.5396 109.654 30.5396C108.89 30.5396 108.127 30.4007 107.363 30.0537C106.6 29.7067 105.975 29.2208 105.489 28.5267C105.003 27.8326 104.726 26.9997 104.726 25.8892V7.98203L104.656 7.9126Z" fill="#FFF4E1"/>
<path d="M116.872 9.23119C116.317 9.23119 115.901 9.02298 115.484 8.67594C115.068 8.3289 114.929 7.84303 114.929 7.35717C114.929 6.87132 115.137 6.38545 115.484 6.03841C115.901 5.69137 116.317 5.48315 116.872 5.48315C117.428 5.48315 117.844 5.69137 118.26 6.03841C118.677 6.38545 118.816 6.87132 118.816 7.35717C118.816 7.84303 118.608 8.3289 118.26 8.67594C117.844 9.02298 117.428 9.23119 116.872 9.23119ZM115.484 30.2617V12.2157H118.26V30.2617H115.484Z" fill="#FFF4E1"/>
<path d="M125.409 12.2852L129.713 19.6424L134.016 12.2852H137.209L131.379 21.3082L137.209 30.3312H134.016L129.713 23.321L125.409 30.3312H122.217L127.908 21.3082L122.217 12.2852H125.409Z" fill="#FFF4E1"/>
<path d="M142.553 9.23119C141.998 9.23119 141.582 9.02298 141.165 8.67594C140.749 8.3289 140.61 7.84303 140.61 7.35717C140.61 6.87132 140.818 6.38545 141.165 6.03841C141.582 5.69137 141.998 5.48315 142.553 5.48315C143.108 5.48315 143.525 5.69137 143.941 6.03841C144.358 6.38545 144.497 6.87132 144.497 7.35717C144.497 7.84303 144.288 8.3289 143.941 8.67594C143.525 9.02298 143.108 9.23119 142.553 9.23119ZM141.165 30.2617V12.2157H143.941V30.2617H141.165Z" fill="#FFF4E1"/>
<path d="M156.573 30.6782C154.838 30.6782 153.311 30.2618 152.062 29.4983C150.813 28.7348 149.841 27.6243 149.147 26.2362C148.453 24.848 148.106 23.2516 148.106 21.3776C148.106 19.5036 148.453 17.9072 149.147 16.5191C149.841 15.1309 150.743 14.0204 151.993 13.1875C153.242 12.424 154.63 12.0076 156.226 12.0076C157.823 12.0076 158.1 12.1464 159.003 12.4934C159.905 12.8405 160.738 13.3263 161.501 14.0204C162.265 14.7144 162.82 15.6167 163.306 16.7967C163.792 17.9766 164 19.3648 164 21.0306V22.2105H150.119V19.8506H161.224C161.224 18.8095 161.016 17.9072 160.599 17.1437C160.183 16.3802 159.627 15.6862 158.864 15.2697C158.1 14.7839 157.268 14.5757 156.226 14.5757C155.185 14.5757 154.144 14.8533 153.381 15.4085C152.548 15.9638 151.993 16.6579 151.507 17.5602C151.09 18.4625 150.882 19.3648 150.882 20.3365V21.9329C150.882 23.321 151.09 24.4315 151.576 25.4033C152.062 26.375 152.687 27.069 153.52 27.5549C154.352 28.0407 155.324 28.3184 156.435 28.3184C157.545 28.3184 157.823 28.249 158.378 28.0407C159.003 27.8325 159.489 27.5549 159.905 27.0691C160.321 26.6526 160.669 26.0973 160.877 25.4726L163.584 26.2362C163.306 27.1385 162.82 27.9713 162.195 28.596C161.501 29.2901 160.738 29.8454 159.697 30.1924C158.656 30.5394 157.615 30.7477 156.365 30.7477L156.573 30.6782Z" fill="#FFF4E1"/>
<path d="M10.4702 18.6013C11.5807 17.3519 10.6784 15.3391 9.01264 15.2003C7.34685 15.0615 4.91757 15.4085 3.11297 15.2003C1.30837 14.992 2.14126 14.298 1.86363 13.6039C1.23896 11.7299 0.6837 9.8559 0.059029 7.98189C-0.0797867 7.149 0.267252 6.52432 1.16955 6.45491C3.66824 6.17728 6.58337 6.66314 9.15146 6.45491C11.7195 6.24669 10.8867 5.62199 10.9561 4.65029C11.0255 3.67858 10.7478 1.73518 11.0255 0.763468C11.3031 -0.20824 11.5807 0.0694078 11.9278 0H27.4751C28.2386 0 28.4468 0.277623 28.7245 0.902292C29.5574 2.84571 29.9738 5.27499 30.7373 7.28781C30.8761 8.0513 30.4597 8.74536 29.6268 8.74536H11.789C9.42909 9.16181 9.35968 12.424 11.789 12.8404H27.4751C28.0304 12.8404 28.3774 13.0487 28.5857 13.5345C29.488 15.4779 29.835 18.046 30.6679 19.9894C30.8761 20.8223 30.5291 21.5164 29.6268 21.5858H11.7195C9.35968 22.0716 9.4985 25.3338 11.8584 25.6809H27.5445C27.961 25.6809 28.3774 25.9585 28.5162 26.3749C29.0021 28.4572 30.2514 30.8864 30.5985 32.8993C30.9455 34.9121 30.3903 34.3568 29.488 34.4956H11.9278C11.5113 34.4262 11.0949 34.1486 10.9561 33.7322C10.6784 32.7604 11.0255 30.9559 10.8867 29.8453C10.7478 28.7348 10.0538 28.1795 9.15146 28.0407C7.27745 27.8325 4.98699 28.2489 3.18238 28.0407C1.37778 27.8325 2.34949 27.7631 2.14126 27.2772C1.30837 25.3338 0.891923 22.8352 0.059029 20.8223C-0.149195 20.0588 0.19784 19.2953 1.03073 19.2259C3.59883 18.9483 6.58337 19.4341 9.22086 19.2259C9.5679 19.2259 10.1926 18.8095 10.4702 18.5318V18.6013Z" fill="#FE5F05"/>
</svg>
