<svg width="546" height="546" viewBox="0 0 546 546" fill="none" xmlns="http://www.w3.org/2000/svg">
<g clip-path="url(#clip0_249_22578)">
<mask id="mask0_249_22578" style="mask-type:luminance" maskUnits="userSpaceOnUse" x="19" y="22" width="508" height="502">
<path d="M314.076 22.4952L19.1328 273.33L231.704 523.282L526.648 272.447L314.076 22.4952Z" fill="white"/>
</mask>
<g mask="url(#mask0_249_22578)">
<path d="M220.562 419.698C301.643 448.598 390.8 406.298 419.7 325.217C448.601 244.137 406.3 154.979 325.22 126.079C244.139 97.1785 154.982 139.479 126.081 220.56C97.1809 301.64 139.481 390.798 220.562 419.698Z" stroke="#A4A189" stroke-opacity="0.3" stroke-width="0.805085" stroke-miterlimit="10" stroke-dasharray="0.81 0.81"/>
<path d="M413.729 206.067C393.06 162.506 313.39 156.968 235.439 193.952C157.486 230.936 111.383 296.146 132.052 339.707" stroke="#A4A189" stroke-opacity="0.3" stroke-width="0.805085" stroke-miterlimit="10"/>
<path d="M413.733 206.07C387.09 149.494 302.122 133.631 224.496 170.459C146.872 207.287 105.414 283.134 132.056 339.711" stroke="#A4A189" stroke-opacity="0.3" stroke-width="0.805085" stroke-miterlimit="10" stroke-dasharray="0.81 0.81"/>
<path d="M413.731 206.067C381.185 137.044 291.397 111.028 213.687 148.098C135.975 185.169 99.5071 270.684 132.053 339.707" stroke="#A4A189" stroke-opacity="0.3" stroke-width="0.805085" stroke-miterlimit="10"/>
<path d="M413.727 206.067C407.287 192.069 338.788 210.925 260.923 247.667C183.056 284.409 125.61 325.709 132.049 339.707" stroke="#A4A189" stroke-opacity="0.3" stroke-width="0.805085" stroke-miterlimit="10"/>
<path d="M129.876 335.123C150.784 378.77 230.454 384.308 308.165 347.237C385.875 310.167 432.22 245.042 411.553 201.479" stroke="#A4A189" stroke-opacity="0.3" stroke-width="0.805085" stroke-miterlimit="10"/>
<path d="M129.878 335.121C156.847 391.542 241.731 407.647 319.355 370.818C396.979 333.99 438.436 258.146 411.553 201.484" stroke="#A4A189" stroke-opacity="0.3" stroke-width="0.805085" stroke-miterlimit="10" stroke-dasharray="0.81 0.81"/>
<path d="M129.876 335.123C162.751 403.99 252.21 430.162 330.162 393.176C408.115 356.193 444.428 270.349 411.553 201.481" stroke="#A4A189" stroke-opacity="0.3" stroke-width="0.805085" stroke-miterlimit="10"/>
<path d="M129.876 335.121C143.792 364.03 217.868 357.777 295.821 320.792C373.773 283.807 425.47 230.388 411.554 201.48" stroke="#A4A189" stroke-opacity="0.3" stroke-width="0.805085" stroke-miterlimit="10" stroke-dasharray="0.68 0.68"/>
<path d="M129.876 335.121C137.335 350.843 206.611 333.625 284.235 296.796C361.861 259.967 419.013 217.201 411.554 201.48" stroke="#A4A189" stroke-opacity="0.3" stroke-width="0.805085" stroke-miterlimit="10"/>
<path d="M132.33 338.173L411.801 205.378" stroke="#A4A189" stroke-opacity="0.3" stroke-width="0.805085" stroke-miterlimit="10" stroke-dasharray="0.81 0.81"/>
<path d="M413.725 206.067C400.136 177.003 325.976 183.498 248.022 220.482C170.071 257.468 118.461 310.644 132.05 339.709" stroke="#A4A189" stroke-opacity="0.3" stroke-width="0.805085" stroke-miterlimit="10" stroke-dasharray="0.81 0.81"/>
<path d="M410.944 207.389C412.933 208.098 415.121 207.061 415.83 205.072C416.54 203.081 415.501 200.893 413.512 200.184C411.522 199.475 409.335 200.514 408.626 202.504C407.917 204.493 408.954 206.679 410.944 207.389Z" fill="#A4A189" fill-opacity="0.3"/>
<path d="M129.952 340.706C131.943 341.415 134.13 340.376 134.838 338.388C135.548 336.397 134.511 334.211 132.52 333.501C130.531 332.792 128.343 333.829 127.634 335.82C126.925 337.808 127.963 339.997 129.952 340.706Z" fill="#A4A189" fill-opacity="0.3"/>
<path d="M171.919 154.162C215.603 117.011 296.317 140.048 352.043 205.574C407.769 271.099 417.546 354.465 373.862 391.617C330.177 428.768 249.463 405.731 193.737 340.205C138.011 274.679 128.234 191.314 171.919 154.162Z" stroke="#A4A189" stroke-opacity="0.3" stroke-width="0.805085" stroke-dasharray="0.81 0.81"/>
<path d="M171.386 153.538C195.975 132.626 261.353 169.109 317.412 235.025C373.47 300.941 398.981 371.33 374.392 392.242C349.803 413.153 284.424 376.67 228.366 310.754C172.308 244.838 146.797 174.449 171.386 153.538Z" stroke="#A4A189" stroke-opacity="0.3" stroke-width="0.805085" stroke-dasharray="0.81 0.81"/>
<path d="M274.503 191.005C276.228 189.539 278.818 189.748 280.285 191.472C281.751 193.197 281.542 195.788 279.818 197.254C278.093 198.72 275.503 198.511 274.036 196.787C272.57 195.062 272.779 192.472 274.503 191.005Z" fill="#A4A189" fill-opacity="0.3"/>
<path d="M266.847 349.679C268.571 348.212 271.162 348.422 272.629 350.146C274.095 351.87 273.886 354.461 272.161 355.928C270.437 357.394 267.846 357.185 266.38 355.46C264.913 353.736 265.123 351.145 266.847 349.679Z" fill="#A4A189" fill-opacity="0.3"/>
</g>
</g>
<defs>
<clipPath id="clip0_249_22578">
<rect width="387.182" height="387.182" fill="white" transform="translate(0 250.834) rotate(-40.3795)"/>
</clipPath>
</defs>
</svg>
