<svg width="854" height="854" viewBox="0 0 854 854" fill="none" xmlns="http://www.w3.org/2000/svg">
<g clip-path="url(#clip0_203_8094)">
<mask id="mask0_203_8094" style="mask-type:luminance" maskUnits="userSpaceOnUse" x="29" y="35" width="795" height="784">
<path d="M491.395 35.1956L29.9316 427.647L362.518 818.718L823.981 426.267L491.395 35.1956Z" fill="white"/>
</mask>
<g mask="url(#mask0_203_8094)">
<path d="M345.083 656.652C471.94 701.87 611.435 635.687 656.652 508.829C701.869 381.972 635.686 242.478 508.829 197.261C381.971 152.043 242.477 218.226 197.26 345.084C152.043 471.941 218.225 611.435 345.083 656.652Z" stroke="#A4A189" stroke-opacity="0.3" stroke-width="0.805085" stroke-miterlimit="10" stroke-dasharray="0.81 0.81"/>
<path d="M647.308 322.409C614.97 254.253 490.319 245.589 368.358 303.453C246.394 361.319 174.262 463.344 206.6 531.5" stroke="#A4A189" stroke-opacity="0.3" stroke-width="0.805085" stroke-miterlimit="10"/>
<path d="M647.313 322.414C605.629 233.895 472.689 209.076 351.237 266.697C229.788 324.318 164.923 442.987 206.607 531.505" stroke="#A4A189" stroke-opacity="0.3" stroke-width="0.805085" stroke-miterlimit="10" stroke-dasharray="0.81 0.81"/>
<path d="M647.308 322.409C596.387 214.417 455.906 173.712 334.322 231.711C212.735 289.711 155.679 423.508 206.6 531.5" stroke="#A4A189" stroke-opacity="0.3" stroke-width="0.805085" stroke-miterlimit="10"/>
<path d="M647.307 322.409C637.232 300.508 530.059 330.009 408.233 387.496C286.404 444.982 196.523 509.599 206.599 531.5" stroke="#A4A189" stroke-opacity="0.3" stroke-width="0.805085" stroke-miterlimit="10"/>
<path d="M203.197 524.328C235.91 592.617 360.561 601.281 482.146 543.28C603.73 485.282 676.24 383.388 643.905 315.231" stroke="#A4A189" stroke-opacity="0.3" stroke-width="0.805085" stroke-miterlimit="10"/>
<path d="M203.199 524.324C245.394 612.6 378.202 637.797 499.652 580.176C621.101 522.554 685.964 403.89 643.903 315.237" stroke="#A4A189" stroke-opacity="0.3" stroke-width="0.805085" stroke-miterlimit="10" stroke-dasharray="0.81 0.81"/>
<path d="M203.196 524.327C254.632 632.075 394.598 673.024 516.56 615.157C638.523 557.294 695.338 422.983 643.903 315.233" stroke="#A4A189" stroke-opacity="0.3" stroke-width="0.805085" stroke-miterlimit="10"/>
<path d="M203.194 524.325C224.967 569.555 340.865 559.771 462.829 501.905C584.791 444.039 665.676 360.462 643.903 315.232" stroke="#A4A189" stroke-opacity="0.3" stroke-width="0.805085" stroke-miterlimit="10" stroke-dasharray="0.68 0.68"/>
<path d="M203.194 524.325C214.864 548.923 323.252 521.984 444.701 464.362C566.154 406.739 655.573 339.829 643.903 315.232" stroke="#A4A189" stroke-opacity="0.3" stroke-width="0.805085" stroke-miterlimit="10"/>
<path d="M207.036 529.099L644.291 321.331" stroke="#A4A189" stroke-opacity="0.3" stroke-width="0.805085" stroke-miterlimit="10" stroke-dasharray="0.81 0.81"/>
<path d="M647.303 322.408C626.042 276.935 510.012 287.097 388.048 344.963C266.086 402.83 185.339 486.028 206.599 531.503" stroke="#A4A189" stroke-opacity="0.3" stroke-width="0.805085" stroke-miterlimit="10" stroke-dasharray="0.81 0.81"/>
<path d="M642.95 324.477C646.062 325.586 649.485 323.964 650.594 320.852C651.704 317.738 650.08 314.314 646.968 313.205C643.854 312.095 640.432 313.72 639.322 316.834C638.213 319.946 639.836 323.367 642.95 324.477Z" fill="#A4A189" fill-opacity="0.3"/>
<path d="M203.315 533.062C206.43 534.172 209.851 532.547 210.96 529.435C212.07 526.321 210.447 522.9 207.333 521.79C204.222 520.681 200.798 522.303 199.688 525.417C198.579 528.529 200.204 531.953 203.315 533.062Z" fill="#A4A189" fill-opacity="0.3"/>
<path d="M268.976 241.199C337.325 183.073 463.608 219.117 550.796 321.637C637.985 424.157 653.281 554.59 584.933 612.717C516.585 670.843 390.301 634.799 303.113 532.279C215.925 429.759 200.628 299.326 268.976 241.199Z" stroke="#A4A189" stroke-opacity="0.3" stroke-width="0.805085" stroke-dasharray="0.81 0.81"/>
<path d="M268.146 240.222C306.617 207.504 408.907 264.585 496.615 367.717C584.323 470.848 624.237 580.977 585.765 613.695C547.294 646.413 445.004 589.332 357.296 486.2C269.588 383.069 229.674 272.94 268.146 240.222Z" stroke="#A4A189" stroke-opacity="0.3" stroke-width="0.805085" stroke-dasharray="0.81 0.81"/>
<path d="M429.484 298.843C432.182 296.549 436.235 296.876 438.53 299.574C440.824 302.272 440.497 306.326 437.799 308.62C435.101 310.914 431.047 310.587 428.753 307.889C426.459 305.191 426.786 301.138 429.484 298.843Z" fill="#A4A189" fill-opacity="0.3"/>
<path d="M417.502 547.102C420.2 544.807 424.253 545.135 426.547 547.833C428.842 550.531 428.514 554.584 425.816 556.878C423.118 559.173 419.065 558.845 416.771 556.147C414.476 553.45 414.804 549.396 417.502 547.102Z" fill="#A4A189" fill-opacity="0.3"/>
</g>
</g>
<defs>
<clipPath id="clip0_203_8094">
<rect width="605.778" height="605.778" fill="white" transform="translate(0 392.451) rotate(-40.3795)"/>
</clipPath>
</defs>
</svg>
