<svg preserveAspectRatio="none" overflow="visible" style="display: block;" width="24" height="24" viewBox="0 0 24 24" fill="none" xmlns="http://www.w3.org/2000/svg">
<g id="brifecase-tick">
<path id="Vector" d="M12 18.2C14.2091 18.2 16 16.4091 16 14.2C16 11.9909 14.2091 10.2 12 10.2C9.79086 10.2 8 11.9909 8 14.2C8 16.4091 9.79086 18.2 12 18.2Z" stroke="white" stroke-width="1.5" stroke-miterlimit="10" stroke-linecap="round" stroke-linejoin="round"/>
<path id="Vector_2" d="M10.44 14.3L11.09 14.95C11.28 15.14 11.59 15.14 11.78 14.96L13.56 13.32" stroke="white" stroke-width="1.5" stroke-linecap="round" stroke-linejoin="round"/>
<path id="Vector_3" d="M8 22H16C20.02 22 20.74 20.39 20.95 18.43L21.7 10.43C21.97 7.99 21.27 6 17 6H7C2.73 6 2.03 7.99 2.3 10.43L3.05 18.43C3.26 20.39 3.98 22 8 22Z" stroke="white" stroke-width="1.5" stroke-miterlimit="10" stroke-linecap="round" stroke-linejoin="round"/>
<path id="Vector_4" d="M8 6V5.2C8 3.43 8 2 11.2 2H12.8C16 2 16 3.43 16 5.2V6" stroke="white" stroke-width="1.5" stroke-miterlimit="10" stroke-linecap="round" stroke-linejoin="round"/>
<path id="Vector_5" d="M21.65 11C19.92 12.26 18 13.14 16.01 13.64" stroke="white" stroke-width="1.5" stroke-miterlimit="10" stroke-linecap="round" stroke-linejoin="round"/>
<path id="Vector_6" d="M2.62 11.27C4.29 12.41 6.11 13.22 8 13.68" stroke="white" stroke-width="1.5" stroke-miterlimit="10" stroke-linecap="round" stroke-linejoin="round"/>
<path id="Vector_7" opacity="0" d="M0.5 23.5L0.5 0.5L23.5 0.5L23.5 23.5L0.5 23.5Z" stroke="white"/>
</g>
</svg>
