<svg width="854" height="855" viewBox="0 0 854 855" fill="none" xmlns="http://www.w3.org/2000/svg">
<g clip-path="url(#clip0_203_8728)">
<mask id="mask0_203_8728" style="mask-type:luminance" maskUnits="userSpaceOnUse" x="29" y="35" width="795" height="785">
<path d="M491.397 35.796L29.9336 428.247L362.52 819.318L823.983 426.867L491.397 35.796Z" fill="white"/>
</mask>
<g mask="url(#mask0_203_8728)">
<path d="M345.083 657.253C471.94 702.47 611.435 636.287 656.652 509.43C701.869 382.572 635.686 243.078 508.829 197.861C381.971 152.644 242.477 218.827 197.26 345.684C152.043 472.541 218.225 612.036 345.083 657.253Z" stroke="#A4A189" stroke-opacity="0.3" stroke-width="0.805085" stroke-miterlimit="10" stroke-dasharray="0.81 0.81"/>
<path d="M647.306 323.009C614.968 254.854 490.318 246.189 368.356 304.053C246.392 361.919 174.26 463.944 206.598 532.1" stroke="#A4A189" stroke-opacity="0.3" stroke-width="0.805085" stroke-miterlimit="10"/>
<path d="M647.315 323.014C605.631 234.495 472.691 209.676 351.239 267.297C229.789 324.918 164.925 443.587 206.609 532.106" stroke="#A4A189" stroke-opacity="0.3" stroke-width="0.805085" stroke-miterlimit="10" stroke-dasharray="0.81 0.81"/>
<path d="M647.308 323.009C596.387 215.017 455.906 174.313 334.322 232.311C212.735 290.312 155.679 424.108 206.6 532.1" stroke="#A4A189" stroke-opacity="0.3" stroke-width="0.805085" stroke-miterlimit="10"/>
<path d="M647.307 323.01C637.232 301.109 530.059 330.609 408.233 388.096C286.404 445.582 196.523 510.2 206.599 532.1" stroke="#A4A189" stroke-opacity="0.3" stroke-width="0.805085" stroke-miterlimit="10"/>
<path d="M203.199 524.928C235.912 593.217 360.563 601.882 482.148 543.881C603.732 485.882 676.242 383.989 643.907 315.831" stroke="#A4A189" stroke-opacity="0.3" stroke-width="0.805085" stroke-miterlimit="10"/>
<path d="M203.199 524.925C245.394 613.2 378.202 638.398 499.652 580.776C621.101 523.155 685.964 404.491 643.903 315.838" stroke="#A4A189" stroke-opacity="0.3" stroke-width="0.805085" stroke-miterlimit="10" stroke-dasharray="0.81 0.81"/>
<path d="M203.196 524.928C254.632 632.676 394.598 673.624 516.56 615.758C638.523 557.894 695.338 423.584 643.903 315.833" stroke="#A4A189" stroke-opacity="0.3" stroke-width="0.805085" stroke-miterlimit="10"/>
<path d="M203.196 524.925C224.969 570.155 340.867 560.371 462.831 502.506C584.793 444.639 665.678 361.062 643.905 315.832" stroke="#A4A189" stroke-opacity="0.3" stroke-width="0.805085" stroke-miterlimit="10" stroke-dasharray="0.68 0.68"/>
<path d="M203.196 524.925C214.866 549.523 323.254 522.584 444.703 464.962C566.156 407.339 655.575 340.429 643.905 315.832" stroke="#A4A189" stroke-opacity="0.3" stroke-width="0.805085" stroke-miterlimit="10"/>
<path d="M207.036 529.7L644.291 321.931" stroke="#A4A189" stroke-opacity="0.3" stroke-width="0.805085" stroke-miterlimit="10" stroke-dasharray="0.81 0.81"/>
<path d="M647.303 323.008C626.042 277.536 510.012 287.698 388.048 345.563C266.086 403.43 185.339 486.628 206.599 532.103" stroke="#A4A189" stroke-opacity="0.3" stroke-width="0.805085" stroke-miterlimit="10" stroke-dasharray="0.81 0.81"/>
<path d="M642.95 325.077C646.062 326.186 649.485 324.564 650.594 321.452C651.704 318.338 650.08 314.914 646.968 313.805C643.854 312.695 640.432 314.32 639.322 317.434C638.213 320.546 639.836 323.967 642.95 325.077Z" fill="#A4A189" fill-opacity="0.3"/>
<path d="M203.314 533.663C206.428 534.773 209.849 533.147 210.958 530.036C212.068 526.921 210.446 523.501 207.331 522.391C204.22 521.281 200.796 522.904 199.686 526.018C198.577 529.13 200.202 532.554 203.314 533.663Z" fill="#A4A189" fill-opacity="0.3"/>
<path d="M268.978 241.8C337.327 183.673 463.61 219.717 550.798 322.237C637.987 424.758 653.283 555.19 584.935 613.317C516.587 671.444 390.303 635.4 303.115 532.879C215.927 430.359 200.63 299.926 268.978 241.8Z" stroke="#A4A189" stroke-opacity="0.3" stroke-width="0.805085" stroke-dasharray="0.81 0.81"/>
<path d="M268.148 240.822C306.619 208.104 408.909 265.186 496.617 368.317C584.325 471.448 624.239 581.577 585.767 614.295C547.296 647.013 445.006 589.932 357.298 486.801C269.59 383.669 229.676 273.541 268.148 240.822Z" stroke="#A4A189" stroke-opacity="0.3" stroke-width="0.805085" stroke-dasharray="0.81 0.81"/>
<path d="M429.486 299.444C432.184 297.149 436.237 297.477 438.532 300.175C440.826 302.873 440.499 306.926 437.801 309.22C435.103 311.515 431.049 311.187 428.755 308.489C426.461 305.791 426.788 301.738 429.486 299.444Z" fill="#A4A189" fill-opacity="0.3"/>
<path d="M417.502 547.702C420.2 545.408 424.253 545.735 426.547 548.433C428.842 551.131 428.514 555.184 425.816 557.479C423.118 559.773 419.065 559.446 416.771 556.748C414.476 554.05 414.804 549.997 417.502 547.702Z" fill="#A4A189" fill-opacity="0.3"/>
</g>
</g>
<defs>
<clipPath id="clip0_203_8728">
<rect width="605.778" height="605.778" fill="white" transform="translate(0 393.052) rotate(-40.3795)"/>
</clipPath>
</defs>
</svg>
